<svg id="svg" version="1.1" xmlns="http://www.w3.org/2000/svg" xmlns:xlink="http://www.w3.org/1999/xlink" width="400" height="185.77603143418466" viewBox="0, 0, 400,185.77603143418466"><g id="svgg"><path id="path0" d="M40.833 18.269 C 14.955 19.950,-0.059 47.304,12.432 70.015 C 20.687 85.026,37.899 91.691,54.342 86.244 C 56.298 85.596,58.583 84.498,58.583 84.206 C 58.583 83.949,53.397 78.256,47.671 72.228 L 45.908 70.372 43.329 70.455 C 26.509 71.000,17.930 51.332,29.825 39.499 C 42.578 26.811,64.691 39.576,60.011 56.924 C 59.444 59.022,59.663 59.070,56.793 56.207 L 54.243 53.664 44.939 53.707 L 35.634 53.750 38.266 56.500 C 39.713 58.012,42.739 61.163,44.990 63.500 C 47.241 65.837,49.833 68.534,50.750 69.491 C 51.667 70.449,52.647 71.461,52.929 71.741 C 53.211 72.021,54.297 73.150,55.341 74.250 C 56.385 75.350,59.042 78.125,61.245 80.417 C 63.448 82.708,65.737 85.091,66.333 85.712 L 67.417 86.840 77.109 86.795 L 86.802 86.750 79.619 79.444 L 72.437 72.137 72.980 71.194 C 77.821 62.789,79.197 53.588,76.927 44.792 C 72.657 28.250,57.592 17.180,40.833 18.269 M81.540 44.292 L 81.586 70.083 81.969 71.333 C 84.913 80.927,93.546 86.952,105.356 87.653 C 119.239 88.477,129.380 82.897,132.827 72.535 C 133.638 70.097,133.667 69.480,133.667 54.221 L 133.667 39.965 132.042 38.274 C 131.148 37.344,129.105 35.196,127.501 33.500 C 125.898 31.804,123.533 29.329,122.246 28.000 C 120.959 26.671,119.195 24.847,118.328 23.947 L 116.750 22.311 116.667 45.114 L 116.583 67.917 116.222 68.583 C 113.713 73.218,101.600 73.137,99.051 68.468 C 98.765 67.944,98.748 66.673,98.706 43.208 L 98.662 18.500 90.078 18.500 L 81.494 18.500 81.540 44.292 M118.500 18.596 C 118.500 18.683,124.865 25.281,131.872 32.458 L 134.679 35.333 140.506 35.333 L 146.333 35.333 146.333 61.000 L 146.333 86.667 155.167 86.667 L 164.000 86.667 164.000 61.000 L 164.000 35.333 170.833 35.333 L 177.667 35.333 177.667 26.917 L 177.667 18.500 148.083 18.500 C 131.813 18.500,118.500 18.543,118.500 18.596 " stroke="none" fill="#fbfbfb" fill-rule="evenodd"></path><path id="path1" d="M0.000 92.833 L 0.000 185.667 92.917 185.667 L 185.833 185.667 185.833 92.833 L 185.833 0.000 92.917 0.000 L 0.000 0.000 0.000 92.833 M222.359 17.846 C 215.284 18.764,210.330 25.032,210.334 33.063 C 210.335 35.827,211.051 38.956,212.100 40.780 C 212.320 41.163,212.500 41.560,212.500 41.664 C 212.500 43.148,217.109 46.756,220.250 47.730 C 223.783 48.826,229.039 48.353,231.442 46.722 C 231.757 46.508,232.128 46.333,232.265 46.333 C 232.638 46.333,234.895 44.007,235.640 42.855 C 236.739 41.153,237.196 39.776,237.593 36.958 L 237.705 36.167 234.457 36.167 L 231.210 36.167 231.104 36.965 C 230.444 41.938,224.852 44.283,220.583 41.377 C 215.777 38.104,216.052 27.196,221.012 24.384 C 224.853 22.206,230.061 24.105,230.916 27.996 L 231.026 28.500 234.180 28.500 L 237.333 28.500 237.330 28.125 C 237.272 21.549,230.367 16.807,222.359 17.846 M48.417 18.492 C 70.352 22.149,83.581 44.500,75.997 65.091 C 75.336 66.886,73.679 70.422,73.097 71.277 C 72.860 71.626,72.667 71.968,72.667 72.038 C 72.667 72.108,75.886 75.444,79.821 79.452 C 83.756 83.460,86.939 86.798,86.894 86.870 C 86.850 86.941,82.440 87.000,77.094 87.000 L 67.375 87.000 64.071 83.542 C 62.254 81.640,59.637 78.921,58.257 77.500 C 56.876 76.079,53.234 72.292,50.165 69.084 C 47.095 65.876,44.257 62.913,43.858 62.501 C 37.338 55.754,35.500 53.798,35.500 53.605 C 35.500 53.547,39.732 53.500,44.905 53.500 L 54.311 53.500 56.810 56.042 L 59.309 58.583 59.503 58.083 C 62.197 51.121,59.118 42.071,52.587 37.754 C 40.165 29.541,24.607 37.784,24.600 52.583 C 24.595 63.281,33.723 71.499,44.302 70.319 L 45.888 70.142 46.819 71.140 C 47.331 71.689,48.657 73.100,49.766 74.277 C 58.530 83.577,59.006 84.127,58.577 84.444 C 55.670 86.591,48.666 88.231,42.417 88.228 C 32.505 88.222,23.265 83.955,16.658 76.333 C 2.781 60.323,5.624 36.345,22.827 24.316 C 30.107 19.225,39.707 17.041,48.417 18.492 M93.556 18.444 L 98.833 18.554 98.833 43.080 L 98.833 67.607 99.292 68.512 C 101.254 72.385,111.755 73.094,115.256 69.590 C 116.589 68.256,116.500 70.023,116.500 44.782 C 116.500 32.354,116.561 22.149,116.635 22.103 C 116.709 22.057,116.990 22.257,117.260 22.546 C 118.484 23.862,127.218 33.031,128.178 34.008 C 128.768 34.609,130.281 36.193,131.542 37.528 L 133.833 39.956 133.832 54.353 C 133.831 71.412,133.860 71.119,131.669 75.583 C 126.894 85.307,114.382 89.865,100.080 87.089 C 90.857 85.299,83.777 78.981,81.687 70.677 C 81.332 69.266,81.098 18.791,81.444 18.444 C 81.586 18.303,86.795 18.302,93.556 18.444 M177.793 26.875 L 177.836 35.333 171.002 35.333 L 164.167 35.333 164.167 61.085 L 164.167 86.836 155.208 86.793 L 146.250 86.750 146.208 61.042 L 146.166 35.333 140.291 35.329 L 134.417 35.325 129.417 30.137 C 126.667 27.283,123.962 24.491,123.407 23.932 C 121.221 21.733,118.333 18.634,118.333 18.487 C 118.333 18.392,129.859 18.349,148.042 18.375 L 177.750 18.417 177.793 26.875 M355.128 18.942 C 352.781 19.703,351.468 21.683,351.359 24.623 L 351.296 26.333 349.564 26.333 L 347.833 26.333 347.833 28.417 L 347.833 30.500 349.583 30.500 L 351.333 30.500 351.333 39.083 L 351.333 47.667 354.333 47.667 L 357.333 47.667 357.333 39.083 L 357.333 30.500 359.333 30.500 L 361.333 30.500 361.333 28.417 L 361.333 26.333 359.310 26.333 L 357.286 26.333 357.394 25.303 C 357.590 23.426,358.298 22.894,360.371 23.066 L 361.676 23.175 361.630 20.879 L 361.583 18.583 359.000 18.554 C 356.650 18.527,356.300 18.562,355.128 18.942 M288.500 23.167 L 288.500 26.333 286.667 26.333 L 284.833 26.333 284.833 28.417 L 284.833 30.500 286.660 30.500 L 288.487 30.500 288.535 37.625 C 288.589 45.570,288.579 45.502,289.823 46.549 C 291.058 47.588,295.066 48.186,297.921 47.758 L 298.667 47.646 298.667 45.328 L 298.667 43.009 297.292 43.035 C 294.513 43.087,294.597 43.297,294.533 36.125 L 294.484 30.500 296.575 30.500 L 298.667 30.500 298.667 28.417 L 298.667 26.333 296.583 26.333 L 294.500 26.333 294.500 23.167 L 294.500 20.000 291.500 20.000 L 288.500 20.000 288.500 23.167 M247.467 26.151 C 241.488 27.801,238.461 33.576,239.975 40.442 C 241.090 45.498,245.167 48.341,250.992 48.123 C 253.718 48.021,254.211 47.875,256.921 46.374 C 258.085 45.729,260.333 42.307,260.333 41.179 C 260.333 41.059,259.436 41.000,257.583 41.000 C 255.821 41.000,254.833 41.061,254.833 41.170 C 254.833 41.518,253.459 42.816,252.701 43.185 C 249.589 44.699,246.113 42.709,245.609 39.125 L 245.521 38.500 253.177 38.500 L 260.833 38.500 260.833 37.438 C 260.833 33.774,259.131 29.626,256.952 27.983 C 254.376 26.040,250.546 25.301,247.467 26.151 M273.158 26.148 C 271.755 26.596,270.537 27.324,269.816 28.143 L 269.167 28.880 269.167 27.607 L 269.167 26.333 266.250 26.333 L 263.333 26.333 263.333 37.000 L 263.333 47.667 266.417 47.667 L 269.500 47.667 269.500 41.356 C 269.500 31.872,269.943 30.750,273.683 30.750 C 276.933 30.750,277.330 31.960,277.332 41.875 L 277.333 47.667 280.333 47.667 L 283.333 47.667 283.328 40.208 C 283.320 30.894,283.101 29.502,281.362 27.742 C 279.707 26.068,275.787 25.306,273.158 26.148 M310.603 26.245 C 309.972 26.468,309.292 26.804,309.092 26.992 C 308.892 27.180,308.650 27.333,308.554 27.333 C 308.364 27.333,307.089 28.661,306.633 29.333 C 306.359 29.738,306.351 29.701,306.342 28.042 L 306.333 26.333 303.500 26.333 L 300.667 26.333 300.667 37.000 L 300.667 47.667 303.667 47.667 L 306.667 47.667 306.668 42.458 C 306.669 33.315,307.628 31.567,312.625 31.593 L 314.500 31.603 314.500 28.819 C 314.500 26.435,314.462 26.021,314.236 25.934 C 313.600 25.690,311.719 25.851,310.603 26.245 M323.833 26.062 C 318.508 27.226,315.271 31.824,315.547 37.833 C 315.830 44.010,319.693 47.905,325.750 48.121 C 331.058 48.310,334.439 46.281,336.154 41.875 L 336.495 41.000 333.815 41.000 L 331.134 41.000 330.417 41.798 C 327.374 45.182,322.242 43.751,321.724 39.374 L 321.620 38.500 329.169 38.500 L 336.718 38.500 336.606 36.153 C 336.457 33.032,335.924 31.567,334.040 29.105 C 333.401 28.269,332.301 27.333,331.958 27.333 C 331.885 27.333,331.545 27.147,331.201 26.920 C 329.764 25.969,326.172 25.550,323.833 26.062 M370.532 26.088 C 363.318 27.654,360.128 35.827,363.852 43.203 C 367.214 49.864,379.616 49.800,383.032 43.104 C 384.430 40.364,384.728 35.906,383.724 32.750 C 382.099 27.641,376.470 24.799,370.532 26.088 M396.401 26.171 C 395.843 26.350,395.108 26.684,394.769 26.915 C 394.429 27.145,394.095 27.333,394.025 27.333 C 393.839 27.333,392.930 28.321,392.433 29.065 L 392.000 29.713 392.000 28.023 L 392.000 26.333 389.088 26.333 L 386.176 26.333 386.169 37.000 L 386.162 47.667 389.240 47.667 L 392.318 47.667 392.367 41.708 C 392.415 35.969,392.430 35.716,392.793 34.820 C 393.730 32.504,395.258 31.580,398.129 31.590 L 400.008 31.597 399.962 28.757 L 399.917 25.917 398.667 25.881 C 397.802 25.856,397.104 25.946,396.401 26.171 M252.126 30.845 C 253.121 31.271,253.727 32.008,254.181 33.340 C 254.678 34.799,255.071 34.679,249.965 34.628 L 245.546 34.583 245.742 33.814 C 246.413 31.172,249.522 29.727,252.126 30.845 M328.167 30.899 C 329.031 31.326,330.026 32.541,330.324 33.533 C 330.434 33.901,330.564 34.306,330.613 34.434 C 330.688 34.630,329.979 34.667,326.166 34.667 L 321.630 34.667 321.742 34.042 C 322.252 31.217,325.545 29.607,328.167 30.899 M375.312 30.892 C 377.662 32.033,378.636 35.050,378.030 39.311 C 377.219 45.009,370.066 45.130,368.758 39.467 C 367.394 33.562,371.025 28.811,375.312 30.892 M211.667 72.333 L 211.667 87.000 215.000 87.000 L 218.333 87.000 218.333 81.322 L 218.333 75.645 222.208 75.697 L 226.083 75.750 227.083 76.250 C 228.560 76.988,228.897 77.703,229.240 80.833 C 229.638 84.461,229.807 85.686,230.004 86.375 L 230.182 87.000 233.591 87.000 C 236.954 87.000,237.592 86.886,236.838 86.419 C 236.459 86.185,235.994 84.039,235.832 81.775 C 235.453 76.462,234.737 74.563,232.746 73.589 L 231.805 73.128 232.611 72.660 C 237.414 69.870,237.220 62.009,232.272 58.925 C 230.252 57.666,230.257 57.667,220.382 57.667 L 211.667 57.667 211.667 72.333 M262.667 72.333 L 262.667 87.000 265.583 87.000 L 268.500 87.000 268.500 85.841 L 268.500 84.683 269.336 85.518 C 270.790 86.973,271.607 87.240,274.800 87.306 L 277.517 87.362 278.771 86.767 C 286.710 82.996,285.860 67.312,277.615 65.426 C 274.548 64.725,271.380 65.375,269.625 67.065 L 268.833 67.828 268.833 62.747 L 268.833 57.667 265.750 57.667 L 262.667 57.667 262.667 72.333 M325.333 60.250 L 325.333 62.833 328.333 62.833 L 331.333 62.833 331.333 60.250 L 331.333 57.667 328.333 57.667 L 325.333 57.667 325.333 60.250 M312.333 62.417 L 312.333 65.500 310.667 65.500 L 309.000 65.500 309.000 67.667 L 309.000 69.833 310.658 69.833 L 312.317 69.833 312.367 76.879 L 312.417 83.925 312.980 84.803 C 313.718 85.952,314.715 86.624,316.126 86.923 C 317.424 87.198,321.752 87.253,322.411 87.002 L 322.843 86.838 322.796 84.544 L 322.750 82.250 321.250 82.232 C 318.386 82.198,318.500 82.482,318.500 75.406 L 318.500 69.833 320.667 69.833 L 322.833 69.833 322.833 67.768 C 322.833 65.322,323.024 65.500,320.403 65.500 L 318.500 65.500 318.500 62.417 L 318.500 59.333 315.417 59.333 L 312.333 59.333 312.333 62.417 M226.813 63.093 C 228.897 63.712,229.720 65.513,229.144 68.200 C 228.676 70.385,227.482 70.833,222.136 70.833 L 218.333 70.833 218.333 66.833 L 218.333 62.833 222.136 62.833 C 225.093 62.833,226.134 62.891,226.813 63.093 M246.444 65.439 C 241.584 66.320,238.578 70.521,238.591 76.417 C 238.602 81.476,240.719 84.946,244.877 86.719 C 246.252 87.306,251.146 87.584,252.815 87.171 C 259.677 85.472,262.614 77.255,258.983 69.917 C 258.139 68.212,255.089 65.881,253.314 65.585 C 253.004 65.533,252.342 65.418,251.844 65.329 C 250.589 65.104,248.004 65.157,246.444 65.439 M294.667 65.336 C 294.346 65.411,293.792 65.517,293.436 65.572 C 293.080 65.627,292.255 65.952,291.603 66.294 C 284.457 70.038,284.270 82.186,291.297 86.116 C 294.658 87.996,301.114 87.806,303.630 85.754 C 303.788 85.626,304.334 85.186,304.844 84.776 C 308.644 81.727,309.291 74.840,306.286 69.447 C 304.571 66.369,298.879 64.355,294.667 65.336 M342.077 65.418 C 333.041 67.073,331.135 81.144,339.278 86.083 C 342.380 87.964,348.017 87.870,351.027 85.887 C 353.258 84.418,355.167 81.264,355.167 79.048 L 355.167 78.667 352.280 78.667 L 349.394 78.667 349.106 79.580 C 348.244 82.314,345.332 83.606,342.957 82.308 C 339.225 80.268,339.452 71.969,343.290 70.166 C 345.501 69.126,348.096 70.153,348.844 72.366 L 349.143 73.250 352.155 73.295 C 353.811 73.320,355.167 73.278,355.167 73.201 C 355.167 67.728,349.113 64.128,342.077 65.418 M362.730 65.417 C 359.052 65.992,357.030 68.093,356.873 71.500 C 356.709 75.059,358.234 76.414,364.000 77.834 C 369.339 79.148,370.205 79.654,369.901 81.275 C 369.300 84.481,362.167 83.540,362.167 80.255 L 362.167 79.833 359.250 79.833 L 356.333 79.833 356.333 80.485 C 356.333 83.504,359.184 86.467,362.762 87.167 C 364.471 87.501,370.020 87.308,371.200 86.874 C 374.359 85.710,375.833 83.727,375.964 80.464 C 376.122 76.560,373.661 74.477,367.953 73.681 C 364.338 73.177,362.377 71.808,363.165 70.337 C 364.230 68.347,369.667 69.324,369.667 71.506 L 369.667 72.000 372.583 72.000 C 374.806 72.000,375.500 71.950,375.500 71.792 C 375.500 69.585,373.682 66.911,371.537 65.962 C 369.888 65.233,365.602 64.967,362.730 65.417 M325.333 76.250 L 325.333 87.000 328.333 87.000 L 331.333 87.000 331.333 76.250 L 331.333 65.500 328.333 65.500 L 325.333 65.500 325.333 76.250 M251.739 70.403 C 255.315 72.325,255.379 80.293,251.833 82.236 C 250.050 83.213,247.007 82.748,246.009 81.345 C 244.711 79.523,244.299 75.569,245.149 73.083 C 246.171 70.090,249.010 68.935,251.739 70.403 M275.098 70.166 C 277.382 71.144,278.662 74.676,277.999 78.173 C 276.828 84.345,270.039 84.364,268.826 78.199 C 267.765 72.803,271.145 68.473,275.098 70.166 M299.307 70.366 C 302.976 72.113,303.045 80.424,299.406 82.245 C 295.374 84.261,292.245 81.509,292.363 76.050 C 292.474 70.877,295.382 68.496,299.307 70.366 " stroke="none" fill="#043c74" fill-rule="evenodd"></path><path id="path2" d="M40.295 18.287 C 40.594 18.325,41.044 18.324,41.295 18.286 C 41.545 18.248,41.300 18.217,40.750 18.218 C 40.200 18.219,39.995 18.250,40.295 18.287 M44.628 18.287 C 44.928 18.325,45.378 18.324,45.628 18.286 C 45.878 18.248,45.633 18.217,45.083 18.218 C 44.533 18.219,44.328 18.250,44.628 18.287 M81.415 43.667 C 81.415 57.554,81.434 63.235,81.458 56.292 C 81.482 49.348,81.482 37.985,81.458 31.042 C 81.434 24.098,81.415 29.779,81.415 43.667 M177.744 26.917 C 177.744 31.592,177.765 33.528,177.792 31.220 C 177.818 28.912,177.818 25.087,177.792 22.720 C 177.765 20.353,177.744 22.242,177.744 26.917 M117.583 23.167 C 118.128 23.717,118.610 24.167,118.656 24.167 C 118.702 24.167,118.294 23.717,117.750 23.167 C 117.206 22.617,116.723 22.167,116.677 22.167 C 116.631 22.167,117.039 22.617,117.583 23.167 M122.833 23.250 C 123.331 23.754,123.776 24.167,123.822 24.167 C 123.868 24.167,123.498 23.754,123.000 23.250 C 122.502 22.746,122.057 22.333,122.011 22.333 C 121.966 22.333,122.335 22.746,122.833 23.250 M120.750 26.500 C 121.387 27.142,121.945 27.667,121.991 27.667 C 122.037 27.667,121.553 27.142,120.917 26.500 C 120.280 25.858,119.721 25.333,119.676 25.333 C 119.630 25.333,120.113 25.858,120.750 26.500 M126.333 26.879 C 126.333 26.904,126.915 27.486,127.625 28.171 L 128.917 29.417 127.671 28.125 C 126.514 26.925,126.333 26.757,126.333 26.879 M17.996 28.458 L 16.583 29.917 18.042 28.504 C 18.844 27.727,19.500 27.070,19.500 27.045 C 19.500 26.924,19.309 27.104,17.996 28.458 M67.583 28.333 C 68.128 28.883,68.610 29.333,68.656 29.333 C 68.702 29.333,68.294 28.883,67.750 28.333 C 67.206 27.783,66.723 27.333,66.677 27.333 C 66.631 27.333,67.039 27.783,67.583 28.333 M124.500 30.385 C 124.500 30.414,124.744 30.658,125.042 30.927 L 125.583 31.417 125.094 30.875 C 124.638 30.370,124.500 30.257,124.500 30.385 M131.417 32.167 C 131.775 32.533,132.105 32.833,132.151 32.833 C 132.197 32.833,131.941 32.533,131.583 32.167 C 131.225 31.800,130.895 31.500,130.849 31.500 C 130.803 31.500,131.059 31.800,131.417 32.167 M133.250 34.000 C 133.701 34.458,134.108 34.833,134.154 34.833 C 134.200 34.833,133.868 34.458,133.417 34.000 C 132.965 33.542,132.558 33.167,132.513 33.167 C 132.467 33.167,132.799 33.542,133.250 34.000 M128.326 34.375 C 128.735 34.810,129.091 35.167,129.118 35.167 C 129.243 35.167,129.111 35.017,128.375 34.326 L 127.583 33.583 128.326 34.375 M130.500 36.713 C 130.500 36.738,131.081 37.319,131.792 38.004 L 133.083 39.250 131.838 37.958 C 130.680 36.759,130.500 36.591,130.500 36.713 M29.661 39.625 L 28.750 40.583 29.708 39.672 C 30.599 38.826,30.743 38.667,30.619 38.667 C 30.593 38.667,30.162 39.098,29.661 39.625 M55.160 39.708 C 55.850 40.444,56.000 40.577,56.000 40.451 C 56.000 40.425,55.644 40.068,55.208 39.660 L 54.417 38.917 55.160 39.708 M7.894 52.750 C 7.895 53.667,7.923 54.020,7.956 53.536 C 7.990 53.052,7.990 52.302,7.956 51.869 C 7.921 51.437,7.894 51.833,7.894 52.750 M78.059 53.583 C 78.059 54.408,78.087 54.767,78.122 54.380 C 78.157 53.993,78.157 53.318,78.123 52.880 C 78.088 52.442,78.060 52.758,78.059 53.583 M36.083 54.333 C 36.441 54.700,36.772 55.000,36.818 55.000 C 36.863 55.000,36.608 54.700,36.250 54.333 C 35.892 53.967,35.562 53.667,35.516 53.667 C 35.470 53.667,35.725 53.967,36.083 54.333 M54.333 53.713 C 54.333 53.738,54.915 54.319,55.625 55.004 L 56.917 56.250 55.671 54.958 C 54.514 53.759,54.333 53.591,54.333 53.713 M39.583 58.000 C 40.128 58.550,40.610 59.000,40.656 59.000 C 40.702 59.000,40.294 58.550,39.750 58.000 C 39.206 57.450,38.723 57.000,38.677 57.000 C 38.631 57.000,39.039 57.450,39.583 58.000 M43.333 61.917 C 43.831 62.421,44.276 62.833,44.322 62.833 C 44.368 62.833,43.998 62.421,43.500 61.917 C 43.002 61.413,42.557 61.000,42.511 61.000 C 42.466 61.000,42.835 61.413,43.333 61.917 M48.083 66.833 C 48.628 67.383,49.110 67.833,49.156 67.833 C 49.202 67.833,48.794 67.383,48.250 66.833 C 47.706 66.283,47.223 65.833,47.177 65.833 C 47.131 65.833,47.539 66.283,48.083 66.833 M51.417 70.333 C 51.775 70.700,52.105 71.000,52.151 71.000 C 52.197 71.000,51.941 70.700,51.583 70.333 C 51.225 69.967,50.895 69.667,50.849 69.667 C 50.803 69.667,51.059 69.967,51.417 70.333 M47.417 72.000 C 47.868 72.458,48.275 72.833,48.321 72.833 C 48.367 72.833,48.035 72.458,47.583 72.000 C 47.132 71.542,46.725 71.167,46.679 71.167 C 46.633 71.167,46.965 71.542,47.417 72.000 M107.125 71.955 C 107.515 71.990,108.152 71.990,108.542 71.955 C 108.931 71.920,108.612 71.892,107.833 71.892 C 107.054 71.892,106.735 71.920,107.125 71.955 M74.000 73.750 C 74.867 74.621,75.614 75.333,75.660 75.333 C 75.706 75.333,75.034 74.621,74.167 73.750 C 73.299 72.879,72.552 72.167,72.507 72.167 C 72.461 72.167,73.133 72.879,74.000 73.750 M55.833 74.917 C 56.424 75.512,56.945 76.000,56.990 76.000 C 57.036 76.000,56.591 75.512,56.000 74.917 C 55.409 74.321,54.889 73.833,54.843 73.833 C 54.797 73.833,55.243 74.321,55.833 74.917 M50.167 74.917 C 50.478 75.237,50.770 75.500,50.815 75.500 C 50.861 75.500,50.644 75.237,50.333 74.917 C 50.022 74.596,49.730 74.333,49.685 74.333 C 49.639 74.333,49.856 74.596,50.167 74.917 M52.493 77.375 C 52.902 77.810,53.258 78.167,53.285 78.167 C 53.410 78.167,53.278 78.017,52.542 77.326 L 51.750 76.583 52.493 77.375 M18.167 77.917 C 18.665 78.421,19.109 78.833,19.155 78.833 C 19.201 78.833,18.831 78.421,18.333 77.917 C 17.835 77.412,17.391 77.000,17.345 77.000 C 17.299 77.000,17.669 77.412,18.167 77.917 M59.500 78.719 C 59.500 78.748,59.744 78.991,60.042 79.260 L 60.583 79.750 60.094 79.208 C 59.638 78.703,59.500 78.590,59.500 78.719 M54.667 79.750 C 54.978 80.071,55.270 80.333,55.315 80.333 C 55.361 80.333,55.144 80.071,54.833 79.750 C 54.522 79.429,54.230 79.167,54.185 79.167 C 54.139 79.167,54.356 79.429,54.667 79.750 M82.667 82.583 C 83.993 83.912,85.117 85.000,85.162 85.000 C 85.208 85.000,84.160 83.912,82.833 82.583 C 81.507 81.254,80.383 80.167,80.338 80.167 C 80.292 80.167,81.340 81.254,82.667 82.583 M56.000 81.219 C 56.000 81.248,56.244 81.491,56.542 81.760 L 57.083 82.250 56.594 81.708 C 56.138 81.203,56.000 81.090,56.000 81.219 M64.083 83.500 C 64.720 84.142,65.279 84.667,65.324 84.667 C 65.370 84.667,64.887 84.142,64.250 83.500 C 63.613 82.858,63.055 82.333,63.009 82.333 C 62.963 82.333,63.447 82.858,64.083 83.500 M57.667 83.052 C 57.667 83.081,57.910 83.325,58.208 83.594 L 58.750 84.083 58.260 83.542 C 57.804 83.037,57.667 82.923,57.667 83.052 M106.044 87.786 C 106.297 87.825,106.672 87.824,106.877 87.784 C 107.082 87.744,106.875 87.713,106.417 87.714 C 105.958 87.716,105.791 87.748,106.044 87.786 M109.044 87.786 C 109.297 87.825,109.672 87.824,109.877 87.784 C 110.082 87.744,109.875 87.713,109.417 87.714 C 108.958 87.716,108.791 87.748,109.044 87.786 " stroke="none" fill="#849cbc" fill-rule="evenodd"></path><path id="path3" d="M41.965 18.124 C 42.541 18.156,43.441 18.156,43.965 18.123 C 44.488 18.090,44.017 18.063,42.917 18.064 C 41.817 18.064,41.388 18.091,41.965 18.124 M84.042 18.458 C 85.485 18.486,87.848 18.486,89.292 18.458 C 90.735 18.430,89.554 18.408,86.667 18.408 C 83.779 18.408,82.598 18.430,84.042 18.458 M133.125 18.458 C 141.306 18.482,154.694 18.482,162.875 18.458 C 171.056 18.434,164.362 18.415,148.000 18.415 C 131.637 18.415,124.944 18.434,133.125 18.458 M98.748 42.750 C 98.748 56.133,98.768 61.633,98.792 54.971 C 98.816 48.310,98.816 37.360,98.792 30.638 C 98.768 23.916,98.748 29.367,98.748 42.750 M116.577 22.208 C 116.533 22.323,116.517 32.429,116.541 44.667 L 116.585 66.917 116.626 44.521 C 116.665 23.220,116.681 22.137,116.958 22.355 C 117.223 22.562,117.229 22.556,117.021 22.292 C 116.749 21.945,116.682 21.932,116.577 22.208 M122.667 23.219 C 122.667 23.248,122.910 23.491,123.208 23.760 L 123.750 24.250 123.260 23.708 C 122.804 23.203,122.667 23.090,122.667 23.219 M124.167 24.719 C 124.167 24.748,124.410 24.991,124.708 25.260 L 125.250 25.750 124.760 25.208 C 124.304 24.703,124.167 24.590,124.167 24.719 M120.083 25.667 C 120.441 26.033,120.772 26.333,120.818 26.333 C 120.863 26.333,120.608 26.033,120.250 25.667 C 119.892 25.300,119.562 25.000,119.516 25.000 C 119.470 25.000,119.725 25.300,120.083 25.667 M17.667 28.583 C 17.262 28.996,16.968 29.333,17.014 29.333 C 17.060 29.333,17.428 28.996,17.833 28.583 C 18.238 28.171,18.532 27.833,18.486 27.833 C 18.440 27.833,18.072 28.171,17.667 28.583 M128.583 29.333 C 129.220 29.975,129.779 30.500,129.824 30.500 C 129.870 30.500,129.387 29.975,128.750 29.333 C 128.113 28.692,127.555 28.167,127.509 28.167 C 127.463 28.167,127.947 28.692,128.583 29.333 M128.083 34.000 C 128.441 34.367,128.772 34.667,128.818 34.667 C 128.863 34.667,128.608 34.367,128.250 34.000 C 127.892 33.633,127.562 33.333,127.516 33.333 C 127.470 33.333,127.725 33.633,128.083 34.000 M133.500 34.417 C 133.811 34.737,134.103 35.000,134.149 35.000 C 134.195 35.000,133.978 34.737,133.667 34.417 C 133.356 34.096,133.064 33.833,133.018 33.833 C 132.972 33.833,133.189 34.096,133.500 34.417 M146.248 61.000 C 146.248 75.162,146.268 80.956,146.292 73.875 C 146.316 66.794,146.316 55.206,146.292 48.125 C 146.268 41.044,146.248 46.837,146.248 61.000 M130.500 36.583 C 131.091 37.179,131.611 37.667,131.657 37.667 C 131.703 37.667,131.257 37.179,130.667 36.583 C 130.076 35.987,129.555 35.500,129.510 35.500 C 129.464 35.500,129.909 35.987,130.500 36.583 M55.167 39.917 C 55.665 40.421,56.109 40.833,56.155 40.833 C 56.201 40.833,55.831 40.421,55.333 39.917 C 54.835 39.412,54.391 39.000,54.345 39.000 C 54.299 39.000,54.669 39.412,55.167 39.917 M133.746 54.500 C 133.746 62.612,133.767 65.931,133.792 61.875 C 133.816 57.819,133.816 51.181,133.792 47.125 C 133.767 43.069,133.746 46.387,133.746 54.500 M24.387 52.500 C 24.387 53.096,24.417 53.340,24.454 53.042 C 24.491 52.744,24.491 52.256,24.454 51.958 C 24.417 51.660,24.387 51.904,24.387 52.500 M40.333 58.917 C 40.831 59.421,41.276 59.833,41.322 59.833 C 41.368 59.833,40.998 59.421,40.500 58.917 C 40.002 58.413,39.557 58.000,39.511 58.000 C 39.466 58.000,39.835 58.413,40.333 58.917 M29.750 65.333 C 30.108 65.700,30.438 66.000,30.484 66.000 C 30.530 66.000,30.275 65.700,29.917 65.333 C 29.559 64.967,29.228 64.667,29.182 64.667 C 29.137 64.667,29.392 64.967,29.750 65.333 M48.917 67.833 C 49.461 68.383,49.944 68.833,49.990 68.833 C 50.035 68.833,49.628 68.383,49.083 67.833 C 48.539 67.283,48.056 66.833,48.010 66.833 C 47.965 66.833,48.372 67.283,48.917 67.833 M105.794 71.785 C 106.001 71.824,106.301 71.823,106.460 71.781 C 106.620 71.739,106.450 71.707,106.083 71.709 C 105.717 71.711,105.586 71.745,105.794 71.785 M109.375 71.782 C 109.535 71.823,109.798 71.823,109.958 71.782 C 110.119 71.740,109.987 71.705,109.667 71.705 C 109.346 71.705,109.215 71.740,109.375 71.782 M52.833 71.885 C 52.833 71.914,53.077 72.158,53.375 72.427 L 53.917 72.917 53.427 72.375 C 52.971 71.870,52.833 71.757,52.833 71.885 M57.083 76.333 C 57.812 77.067,58.446 77.667,58.492 77.667 C 58.538 77.667,57.979 77.067,57.250 76.333 C 56.521 75.600,55.887 75.000,55.841 75.000 C 55.795 75.000,56.354 75.600,57.083 76.333 M80.330 80.042 C 81.291 81.027,82.097 81.833,82.122 81.833 C 82.242 81.833,82.039 81.620,80.375 79.997 L 78.583 78.250 80.330 80.042 M61.493 80.875 C 62.184 81.611,62.333 81.743,62.333 81.618 C 62.333 81.591,61.977 81.235,61.542 80.826 L 60.750 80.083 61.493 80.875 M65.083 84.667 C 65.628 85.217,66.110 85.667,66.156 85.667 C 66.202 85.667,65.794 85.217,65.250 84.667 C 64.706 84.117,64.223 83.667,64.177 83.667 C 64.131 83.667,64.539 84.117,65.083 84.667 M72.220 86.958 C 74.954 86.984,79.379 86.984,82.054 86.958 C 84.728 86.932,82.492 86.911,77.083 86.911 C 71.675 86.911,69.487 86.933,72.220 86.958 M41.708 88.289 C 42.144 88.324,42.856 88.324,43.292 88.289 C 43.727 88.255,43.371 88.227,42.500 88.227 C 41.629 88.227,41.273 88.255,41.708 88.289 " stroke="none" fill="#446c94" fill-rule="evenodd"></path><path id="path4" d="M120.833 21.250 C 121.424 21.846,121.945 22.333,121.990 22.333 C 122.036 22.333,121.591 21.846,121.000 21.250 C 120.409 20.654,119.889 20.167,119.843 20.167 C 119.797 20.167,120.243 20.654,120.833 21.250 M125.667 26.250 C 125.978 26.571,126.270 26.833,126.315 26.833 C 126.361 26.833,126.144 26.571,125.833 26.250 C 125.522 25.929,125.230 25.667,125.185 25.667 C 125.139 25.667,125.356 25.929,125.667 26.250 M122.000 27.719 C 122.000 27.748,122.244 27.991,122.542 28.260 L 123.083 28.750 122.594 28.208 C 122.138 27.703,122.000 27.590,122.000 27.719 M129.833 30.552 C 129.833 30.581,130.077 30.825,130.375 31.094 L 130.917 31.583 130.427 31.042 C 129.971 30.537,129.833 30.423,129.833 30.552 M41.458 34.455 C 41.848 34.490,42.485 34.490,42.875 34.455 C 43.265 34.420,42.946 34.392,42.167 34.392 C 41.387 34.392,41.069 34.420,41.458 34.455 M164.041 61.040 L 164.000 86.664 155.125 86.708 L 146.250 86.753 155.130 86.793 C 162.111 86.825,164.027 86.789,164.090 86.625 C 164.133 86.510,164.149 74.942,164.126 60.917 L 164.082 35.417 164.041 61.040 M40.113 53.625 C 42.696 53.651,46.971 53.651,49.613 53.625 C 52.255 53.599,50.142 53.578,44.917 53.578 C 39.692 53.578,37.530 53.599,40.113 53.625 M37.667 56.052 C 37.667 56.081,37.910 56.325,38.208 56.594 L 38.750 57.083 38.260 56.542 C 37.804 56.037,37.667 55.923,37.667 56.052 M57.583 57.000 C 58.035 57.458,58.442 57.833,58.487 57.833 C 58.533 57.833,58.201 57.458,57.750 57.000 C 57.299 56.542,56.892 56.167,56.846 56.167 C 56.800 56.167,57.132 56.542,57.583 57.000 M46.167 64.885 C 46.167 64.914,46.410 65.158,46.708 65.427 L 47.250 65.917 46.760 65.375 C 46.304 64.870,46.167 64.757,46.167 64.885 M75.667 75.385 C 75.667 75.414,75.910 75.658,76.208 75.927 L 76.750 76.417 76.260 75.875 C 75.804 75.370,75.667 75.257,75.667 75.385 M58.500 77.719 C 58.500 77.748,58.744 77.991,59.042 78.260 L 59.583 78.750 59.094 78.208 C 58.638 77.703,58.500 77.590,58.500 77.719 M127.906 80.708 L 127.417 81.250 127.958 80.760 C 128.256 80.491,128.500 80.248,128.500 80.219 C 128.500 80.090,128.362 80.203,127.906 80.708 M85.167 85.052 C 85.167 85.081,85.410 85.325,85.708 85.594 L 86.250 86.083 85.760 85.542 C 85.304 85.037,85.167 84.923,85.167 85.052 M66.167 85.719 C 66.167 85.748,66.410 85.991,66.708 86.260 L 67.250 86.750 66.760 86.208 C 66.304 85.703,66.167 85.590,66.167 85.719 " stroke="none" fill="#6484a4" fill-rule="evenodd"></path></g></svg>